<svg xmlns="http://www.w3.org/2000/svg" width="128" height="26" viewBox="0 0 128 26">
    <defs>
        <clipPath id="yiybbb6m1a">
            <path data-name="사각형 1599" style="fill:none" d="M0 0h127.087v26H0z"/>
        </clipPath>
    </defs>
    <path style="fill:none" d="M0 0h128v26H0z"/>
    <g data-name="그룹 1685" style="clip-path:url(#yiybbb6m1a)">
        <path data-name="패스 4277" d="M577.462 3a3 3 0 1 1-3-3 3 3 0 0 1 3 3" transform="translate(-450.375)" style="fill:#2dabc1"/>
        <path data-name="패스 4278" d="M455.124 106.876a1.876 1.876 0 1 1-1.876-1.876 1.876 1.876 0 0 1 1.876 1.876" transform="translate(-355.733 -82.752)" style="fill:#444"/>
        <path data-name="사각형 1598" transform="translate(122.064 8.468)" style="fill:#444" d="M0 0h4.042v17.532H0z"/>
        <path data-name="패스 4279" d="M382.012 57.121h-4.042V46.71a3.18 3.18 0 1 0-6.36 0v10.411h-4.042V46.71a7.222 7.222 0 1 1 14.444 0z" transform="translate(-289.686 -31.121)" style="fill:#71a62f"/>
        <path data-name="패스 4280" d="M328.878 46.332a7.2 7.2 0 0 1 2.07-5.055 7.218 7.218 0 0 0-12.472 4.954v10.411h4.042V46.231a3.18 3.18 0 0 1 6.36 0z" transform="translate(-250.996 -30.744)" style="fill:#4f9237"/>
        <path data-name="패스 4281" d="M139.911 52.7a4.825 4.825 0 0 1 0-9.651 2.021 2.021 0 0 1 0-4.042 8.867 8.867 0 1 0 4.117 16.717v-5.34a4.822 4.822 0 0 1-4.117 2.318" transform="translate(-103.278 -30.744)" style="fill:#b91c22"/>
        <path data-name="패스 4282" d="M165.377 39.009a2.021 2.021 0 1 0 0 4.042 4.831 4.831 0 0 1 4.825 4.825v8.762h4.042v-8.762a8.877 8.877 0 0 0-8.867-8.867" transform="translate(-128.743 -30.744)" style="fill:#da3a24"/>
        <path data-name="패스 4283" d="M484.638 39.009a8.867 8.867 0 1 0 4.117 16.717v-5.342a4.819 4.819 0 1 1 .708-2.508v8.762h4.042v-8.762a8.877 8.877 0 0 0-8.867-8.867" transform="translate(-374.962 -30.744)" style="fill:#444"/>
        <path data-name="패스 4284" d="M234.593 55.1a2.021 2.021 0 0 1 2.021-2.021 4.037 4.037 0 0 1-4.033-4.032v-9.559h-4.041v9.559a8.084 8.084 0 0 0 8.074 8.074 2.021 2.021 0 0 1-2.021-2.021" transform="translate(-180.116 -31.121)" style="fill:#e99100"/>
        <path data-name="패스 4285" d="M263.162 39.488v9.559a4.037 4.037 0 0 1-4.032 4.032 2.021 2.021 0 1 0 0 4.042 8.083 8.083 0 0 0 8.074-8.074v-9.559z" transform="translate(-202.631 -31.121)" style="fill:#f5a700"/>
        <path data-name="패스 4286" d="M63.536 57.121h-4.042V46.71a3.18 3.18 0 1 0-6.36 0v10.411h-4.042V46.71a7.222 7.222 0 1 1 14.444 0z" transform="translate(-38.69 -31.121)" style="fill:#1a68b2"/>
        <path data-name="패스 4287" d="M10.4 46.332a7.2 7.2 0 0 1 2.07-5.055A7.218 7.218 0 0 0 0 46.231v10.411h4.042V46.231a3.18 3.18 0 0 1 6.36 0z" transform="translate(0 -30.744)" style="fill:#0c519b"/>
    </g>
</svg>
